<svg width="20" height="20" viewBox="0 0 20 20" fill="none" xmlns="http://www.w3.org/2000/svg">
<g clip-path="url(#clip0_1366_419)">
<path d="M18.0898 11.7898C18.0617 10.2093 17.659 8.70609 16.9251 7.44254C16.8074 7.23988 16.5803 7.12683 16.3476 7.15519C16.1149 7.18351 15.9216 7.34773 15.8559 7.57269C15.6371 8.32242 15.245 9.00859 14.6315 9.69425C14.8431 8.09531 14.7165 6.61332 14.2517 5.27125C13.4937 3.08226 11.8521 1.33031 9.37271 0.0641368C9.17201 -0.0384023 8.93029 -0.0166835 8.75107 0.119918C8.57182 0.25652 8.48682 0.483785 8.5324 0.704527C9.03029 3.1141 8.07752 4.36808 6.97432 5.82011C6.21885 6.81449 5.3851 7.91176 5.05037 9.4489C4.63978 8.85258 4.3324 8.21843 4.14396 7.57269C4.07834 7.34769 3.88494 7.18347 3.65228 7.15519C3.41975 7.12672 3.19248 7.23988 3.07482 7.44254C2.34092 8.70617 1.93814 10.2094 1.9101 11.7898C1.88185 13.3785 2.23029 14.8146 2.94568 16.0582C3.59174 17.1812 4.54635 18.1337 5.70635 18.8126C6.68994 19.3882 7.79639 19.7634 8.95428 19.9187C9.32193 19.968 10.0001 19.7349 10.0001 19.7349C10.0001 19.7349 10.0625 19.9986 10.1281 19.9983C10.1885 19.9981 10.3405 19.9986 10.3716 19.998C11.8368 19.9669 13.2329 19.5851 14.426 18.8868C16.8448 17.4711 18.146 14.9507 18.0898 11.7898Z" fill="#FF405C"/>
<path d="M18.0898 11.7898C18.0617 10.2093 17.659 8.70609 16.9251 7.44253C16.8074 7.23988 16.5804 7.12683 16.3476 7.15519C16.115 7.18351 15.9216 7.34773 15.8559 7.57269C15.6371 8.32242 15.245 9.00859 14.6315 9.69425C14.8431 8.09531 14.7165 6.61332 14.2518 5.27125C13.5595 3.27242 12.1307 1.63804 10 0.405151V19.7348H10C10 19.7348 10.0625 19.9985 10.128 19.9983C10.1884 19.998 10.3405 19.9986 10.3716 19.9979C11.8368 19.9668 13.2329 19.585 14.426 18.8867C16.8448 17.4711 18.146 14.9507 18.0898 11.7898Z" fill="#EA1C81"/>
<path d="M13.6772 15.5464C13.1471 12.7696 11.6711 10.1768 10.0755 7.5444C9.93965 7.32022 9.67141 7.2135 9.41868 7.28323C9.16594 7.35292 8.99028 7.58198 8.98852 7.84413C8.9679 10.9241 7.84063 12.4131 6.68778 13.6742C5.72879 14.7234 5.44571 16.1474 5.93059 17.4837C6.41551 18.8198 7.54594 19.7309 8.95458 19.9209C9.25633 19.9616 9.56332 19.9874 9.86704 19.9976H9.86696C9.91485 19.9992 9.96227 20 10.0097 20C11.1293 20 12.1064 19.5483 12.8426 18.6883C13.6099 17.7918 13.8986 16.7054 13.6772 15.5464Z" fill="#FFD845"/>
<path d="M13.6773 15.5463C13.1471 12.7695 11.6711 10.1767 10.0755 7.54435C10.0536 7.50818 10.0282 7.47506 10 7.44525V20C10.0032 20 10.0064 20 10.0097 20C11.1293 20 12.1064 19.5483 12.8426 18.6883C13.61 17.7918 13.8986 16.7053 13.6773 15.5463Z" fill="#FFB454"/>
</g>
<defs>
<clipPath id="clip0_1366_419">
<rect width="20" height="20" fill="white"/>
</clipPath>
</defs>
</svg>
