<svg width="20" height="20" viewBox="0 0 20 20" fill="none" xmlns="http://www.w3.org/2000/svg">
<path d="M10 20C9.85406 20 9.70813 19.9458 9.59485 19.8373L7.63765 17.964C5.78021 16.1862 4.35889 14.1643 3.41316 11.9542C2.47458 9.76095 1.99869 7.36965 1.99869 4.84671V2.59744C1.99869 2.48779 2.02931 2.38256 2.08455 2.29213C2.13478 2.20987 17.8653 2.20983 17.9156 2.29205C17.9708 2.38248 18.0014 2.48779 18.0014 2.59744V4.84671C18.0014 7.36961 17.5255 9.76091 16.587 11.9542C15.6412 14.1642 14.2199 16.1862 12.3625 17.964L10.4053 19.8373C10.2919 19.9458 10.1459 20 10 20Z" fill="#D7E3F0"/>
<path d="M17.9155 2.29211C17.8904 2.25098 13.9452 2.23043 10 2.23047V20C10.1459 20 10.2919 19.9458 10.4052 19.8374L12.3624 17.964C14.2198 16.1862 15.6411 14.1643 16.5868 11.9542C17.5254 9.76097 18.0013 7.36967 18.0013 4.84677V2.5975C18.0014 2.48785 17.9707 2.38254 17.9155 2.29211Z" fill="#BED2E6"/>
<path fill-rule="evenodd" clip-rule="evenodd" d="M4.90655 4.00701L15.0499 4.00936L17.9155 2.29207C17.8653 2.20985 17.7948 2.13989 17.7084 2.09004C12.8817 -0.696681 7.11836 -0.696681 2.29162 2.09004C2.20525 2.13989 2.13474 2.20989 2.08451 2.29215L4.90655 4.00701Z" fill="#F0F5FA"/>
<path fill-rule="evenodd" clip-rule="evenodd" d="M17.7084 2.09005C15.295 0.696671 12.6475 0 9.99996 0V4.0082L15.0498 4.00937L17.9155 2.29208C17.8653 2.20986 17.7947 2.1399 17.7084 2.09005Z" fill="#D7E3F0"/>
<path d="M10 16.9809L9.25817 16.2709C5.99626 13.1488 4.34233 9.30517 4.34233 4.84675V3.64813L4.68811 3.4927C6.38258 2.7313 8.16838 2.3449 9.9959 2.34424H10.0007C11.8294 2.34424 13.6163 2.73064 15.3119 3.4927L15.6577 3.64809V4.84679C15.6577 9.30521 14.0037 13.1488 10.7418 16.2709L10 16.9809Z" fill="#BBCCE6"/>
<path d="M15.3119 3.4927C13.6163 2.7306 11.8294 2.34424 10.0007 2.34424H10V16.9809L10 16.9809L10.7418 16.2708C14.0037 13.1488 15.6577 9.30517 15.6577 4.84675V3.64809L15.3119 3.4927Z" fill="#A0B6DB"/>
<path fill-rule="evenodd" clip-rule="evenodd" d="M6.03649 8.82812C6.64141 11.0204 7.77014 13.0052 9.41407 14.7627V11.016L7.66378 8.82812H6.03649Z" fill="#FF405C"/>
<path fill-rule="evenodd" clip-rule="evenodd" d="M10 9.87256L11.3199 8.22264L10 6.57275L8.68005 8.22264L10 9.87256Z" fill="#FF405C"/>
<path fill-rule="evenodd" clip-rule="evenodd" d="M10.5859 5.4293L12.3676 7.6563H14.2332C14.4014 6.75186 14.4858 5.81492 14.4858 4.84673V4.41243C13.2197 3.88912 11.9059 3.59381 10.5859 3.52643L10.5859 5.4293Z" fill="#EA1C81"/>
<path fill-rule="evenodd" clip-rule="evenodd" d="M12.3362 8.82819L10.5859 11.016V14.7627C12.2299 13.0052 13.3586 11.0204 13.9635 8.82819H12.3362Z" fill="#EA1C81"/>
<path fill-rule="evenodd" clip-rule="evenodd" d="M7.63245 7.65626L9.41407 5.4293V3.52643C8.09416 3.59389 6.78039 3.88924 5.51419 4.41247V4.84669C5.51419 5.81488 5.59857 6.75182 5.76673 7.65622H7.63245V7.65626Z" fill="#FF405C"/>
<path fill-rule="evenodd" clip-rule="evenodd" d="M10 6.57275L9.99996 9.87256L11.3199 8.22264L10 6.57275Z" fill="#EA1C81"/>
</svg>
